<?xml version="1.0" standalone="no"?>
<!DOCTYPE svg PUBLIC "-//W3C//DTD SVG 20010904//EN"
 "http://www.w3.org/TR/2001/REC-SVG-20010904/DTD/svg10.dtd">
<svg version="1.0" xmlns="http://www.w3.org/2000/svg"
 width="300.000000pt" height="280.000000pt" viewBox="0 0 300.000000 280.000000"
 preserveAspectRatio="xMidYMid meet">
<metadata>
Created by potrace 1.10, written by Peter Selinger 2001-2011
</metadata>
<g transform="translate(0.000000,280.000000) scale(0.100000,-0.100000)"
fill="#000000" stroke="none">
<path d="M1857 2789 c-10 -6 -83 -12 -163 -13 -146 -4 -146 -4 -175 -32 -30
-31 -28 -24 -95 -324 -56 -252 -161 -595 -195 -636 -5 -6 -33 -14 -62 -16 -29
-2 -73 -14 -98 -26 -52 -25 -99 -29 -99 -8 0 8 9 42 19 77 27 88 87 339 102
422 13 79 4 109 -42 132 -34 18 -379 12 -410 -8 -34 -20 -77 -125 -94 -227 -9
-52 -29 -135 -45 -185 -15 -49 -45 -146 -65 -215 -53 -178 -49 -172 -142 -193
-130 -29 -152 -37 -178 -65 -38 -40 -29 -115 20 -182 14 -19 25 -41 25 -49 0
-8 8 -23 17 -33 13 -14 17 -34 15 -71 -1 -29 3 -64 9 -80 10 -23 7 -39 -17
-103 -19 -50 -36 -79 -49 -84 -31 -12 -53 -41 -79 -106 -33 -80 -41 -130 -26
-149 16 -19 44 -19 60 0 7 9 21 13 35 9 17 -4 30 4 59 38 l37 43 18 -22 c15
-18 18 -35 13 -91 -4 -61 -2 -72 17 -91 29 -29 54 -26 94 9 19 16 37 27 40 24
12 -12 55 29 82 77 15 28 33 53 41 56 20 7 71 115 85 181 7 31 23 72 36 91 13
18 32 60 44 92 16 44 30 64 58 82 37 24 175 81 224 93 31 7 34 -5 16 -69 -8
-31 -7 -43 5 -61 14 -22 11 -35 -43 -185 -43 -120 -64 -166 -82 -179 -35 -24
-54 -50 -88 -118 -41 -85 -56 -146 -42 -173 17 -31 56 -27 83 9 12 17 29 30
38 30 17 0 60 39 60 54 0 4 6 22 14 39 8 18 23 57 34 87 30 82 69 157 84 162
17 7 38 -1 38 -13 0 -6 -13 -21 -30 -35 -25 -22 -28 -28 -18 -49 16 -34 3 -68
-31 -83 -37 -16 -46 -41 -27 -76 14 -28 13 -67 -4 -120 -17 -49 -12 -121 8
-139 25 -23 28 -22 73 14 26 20 45 28 58 24 27 -8 55 31 82 113 29 90 56 142
86 165 41 33 93 164 93 237 0 20 9 39 25 55 17 14 41 65 66 137 70 195 76 211
107 288 16 41 60 147 97 235 36 88 105 273 151 410 72 212 88 274 110 408 13
87 31 190 39 228 23 107 20 127 -21 165 -36 35 -65 41 -97 23z m79 -52 l27
-24 -15 -59 c-15 -55 -25 -107 -63 -344 -18 -110 -148 -508 -230 -700 -87
-206 -205 -510 -249 -648 -18 -54 -29 -64 -40 -35 -10 24 -19 8 -50 -82 -16
-44 -35 -96 -43 -115 -33 -76 -65 -163 -109 -297 -16 -48 -33 -83 -41 -83 -7
0 -13 2 -13 4 0 2 18 55 40 119 22 63 40 119 40 126 0 21 -19 11 -22 -11 -2
-13 -11 -24 -21 -26 -15 -3 -16 0 -7 24 6 15 8 29 6 32 -3 2 -8 -8 -12 -23 -4
-15 -17 -30 -31 -36 -21 -8 -24 -14 -18 -39 4 -19 0 -44 -14 -76 -12 -26 -19
-49 -16 -52 3 -3 5 0 5 6 0 7 7 12 16 12 11 0 14 -6 9 -22 -10 -33 -26 -46
-33 -28 -4 10 -10 1 -17 -23 -6 -21 -15 -37 -20 -35 -15 5 -6 109 12 126 10
10 13 25 8 48 -4 22 0 44 11 66 20 38 59 146 120 328 25 74 53 148 61 164 21
41 93 253 93 274 0 32 -44 -50 -76 -142 -17 -50 -36 -92 -42 -94 -16 -5 -22
29 -12 73 5 24 5 44 -1 51 -6 8 -3 27 10 57 11 26 16 49 11 52 -5 3 -11 2 -13
-2 -41 -68 -109 -236 -157 -388 -12 -38 -39 -106 -59 -150 -21 -44 -53 -124
-72 -177 -19 -54 -40 -98 -46 -98 -7 0 -13 2 -13 4 0 12 190 535 239 660 46
113 36 125 -14 19 -24 -51 -49 -93 -54 -93 -16 0 -14 11 19 93 34 86 36 97 15
97 -26 0 -227 -70 -292 -102 -72 -35 -86 -49 -103 -103 -20 -65 -52 -135 -61
-135 -4 0 -12 8 -18 17 -7 14 -11 9 -21 -27 -7 -25 -15 -49 -20 -55 -13 -17
-23 -78 -12 -71 6 3 14 21 17 39 10 43 24 69 35 62 8 -5 -23 -108 -50 -167
-12 -26 -17 -30 -37 -27 -3 0 -22 -30 -40 -68 -60 -118 -73 -104 -26 28 25 69
26 80 14 103 -18 33 -27 33 -34 -1 -3 -18 0 -31 11 -39 14 -10 14 -14 3 -28
-7 -9 -21 -16 -31 -16 -20 0 -34 -38 -24 -64 4 -9 1 -16 -6 -16 -8 0 -10 -8
-6 -23 7 -30 -12 -56 -43 -59 -24 -3 -25 -1 -22 46 3 51 63 239 124 386 48
116 52 131 33 124 -12 -4 -55 -100 -80 -176 -6 -21 -26 -24 -26 -5 0 6 14 45
30 86 32 79 35 91 21 91 -5 0 -33 -48 -62 -108 -60 -123 -76 -118 -25 7 33 80
36 101 17 101 -5 0 -23 -42 -41 -92 -49 -140 -109 -280 -130 -308 -33 -43 -34
-13 -3 72 17 46 55 147 84 225 29 79 49 146 44 150 -4 5 -10 2 -12 -5 -3 -7
-10 -18 -17 -25 -7 -7 -15 -19 -19 -27 -12 -31 -7 25 7 78 14 52 14 53 -10 68
-14 10 -24 26 -24 41 0 13 -14 42 -32 64 -27 33 -32 49 -33 92 l0 52 139 36
140 35 22 70 c12 38 39 125 59 194 21 69 48 159 60 200 13 41 26 104 30 140 4
40 19 91 38 133 l32 67 185 4 c102 2 193 -1 203 -6 9 -5 17 -18 17 -29 0 -51
-78 -379 -130 -549 -30 -98 -29 -100 26 -82 37 12 49 13 69 2 14 -7 31 -9 42
-5 16 7 15 9 -7 15 -24 7 -24 7 13 23 50 22 118 40 124 33 9 -9 -8 -26 -27
-26 -10 0 -22 -4 -25 -10 -8 -14 4 -13 56 5 41 14 48 21 73 78 74 165 170 506
237 845 17 88 34 106 100 108 30 1 59 -3 66 -8 7 -5 18 -6 25 -2 7 5 42 9 78
10 36 1 76 7 90 12 35 15 36 15 66 -11z m-786 -1651 c0 -18 -47 -158 -73 -216
-37 -84 -29 -21 13 105 38 111 60 153 60 111z m40 -71 c0 -23 -29 -75 -41 -75
-7 0 -8 7 -4 18 4 9 12 29 17 45 11 29 28 37 28 12z m-59 -178 c-6 -15 -15
-27 -21 -27 -14 0 -2 72 14 82 15 10 19 -22 7 -55z m-1020 -98 c-41 -114 -61
-151 -61 -113 0 17 22 84 60 179 13 33 31 58 37 51 3 -2 -14 -55 -36 -117z
m1239 89 c0 -11 -52 -154 -65 -178 -15 -29 -42 -44 -32 -17 2 6 20 54 38 104
19 51 40 93 47 93 6 0 12 -1 12 -2z m-1050 -89 c0 -17 -20 -49 -30 -49 -14 0
-12 34 2 48 15 15 28 15 28 1z m576 -71 c-10 -51 -76 -221 -91 -237 -42 -43
-18 50 48 187 22 45 42 82 45 82 2 0 2 -15 -2 -32z m154 -88 c0 -11 -7 -20
-15 -20 -15 0 -21 21 -8 33 12 13 23 7 23 -13z"/>
<path d="M1550 2207 c0 -13 -4 -27 -9 -32 -14 -16 -23 -65 -11 -65 5 0 12 12
16 28 3 15 10 37 15 50 12 30 11 42 -1 42 -5 0 -10 -10 -10 -23z"/>
<path d="M1508 2215 c-3 -5 -9 -26 -12 -45 -4 -19 -11 -44 -15 -55 -5 -11 -37
-108 -72 -215 -34 -107 -65 -201 -67 -209 -3 -7 0 -12 7 -10 15 5 85 203 126
354 17 66 35 128 39 137 9 19 4 58 -6 43z"/>
<path d="M1448 2204 c-5 -4 -8 -15 -8 -24 0 -10 -11 -52 -25 -94 -28 -86 -29
-89 -16 -81 14 8 63 162 59 186 -2 11 -6 17 -10 13z"/>
<path d="M676 1924 c-9 -24 -7 -54 4 -54 6 0 10 9 10 19 0 11 3 26 6 35 3 9 2
16 -4 16 -5 0 -13 -7 -16 -16z"/>
<path d="M600 1828 c-17 -57 -45 -140 -61 -186 -30 -87 -35 -112 -21 -112 5 0
25 44 45 98 70 187 96 286 78 296 -5 4 -24 -40 -41 -96z"/>
<path d="M560 1878 c-6 -24 -15 -53 -20 -66 -6 -13 -7 -28 -4 -34 6 -9 40 69
51 120 10 41 -16 22 -27 -20z"/>
<path d="M1482 1756 c-16 -35 -27 -103 -15 -91 8 8 43 99 43 112 0 13 -19 -1
-28 -21z"/>
<path d="M1194 1666 c-21 -16 -16 -30 9 -20 16 6 32 34 19 34 -5 0 -17 -6 -28
-14z"/>
<path d="M592 1638 c-7 -7 -12 -23 -12 -37 0 -30 15 -17 24 22 7 30 5 32 -12
15z"/>
<path d="M1295 1574 c-12 -12 -13 -20 -5 -28 12 -12 30 7 30 32 0 16 -5 15
-25 -4z"/>
<path d="M907 1573 c-15 -15 -5 -22 22 -17 16 4 32 1 35 -5 10 -16 59 -14 53
2 -2 6 -15 11 -29 9 -15 -2 -29 2 -33 7 -7 12 -38 15 -48 4z"/>
<path d="M1095 1520 c-27 -10 -58 -19 -67 -19 -10 -1 -18 -5 -18 -11 0 -6 23
-7 60 -3 33 3 60 2 59 -3 0 -5 -24 -21 -52 -35 -39 -19 -51 -30 -50 -46 2 -16
-8 -23 -56 -36 -128 -36 -238 -88 -226 -107 3 -6 14 -6 28 0 12 5 92 34 177
65 155 57 187 73 163 82 -23 8 -14 33 12 33 21 0 25 5 25 29 0 17 5 33 10 36
14 9 12 35 -2 34 -7 -1 -35 -10 -63 -19z"/>
<path d="M1272 1508 c-14 -14 -16 -38 -2 -38 9 0 30 31 30 44 0 10 -15 7 -28
-6z"/>
<path d="M900 1458 c-14 -6 -40 -18 -57 -26 -32 -14 -44 -32 -22 -32 18 0 128
54 128 63 1 10 -19 8 -49 -5z"/>
<path d="M1241 1437 c-6 -8 -8 -17 -5 -20 9 -8 44 11 44 23 0 15 -26 12 -39
-3z"/>
<path d="M1226 1375 c-18 -18 -20 -31 -8 -39 10 -6 38 41 30 49 -3 3 -13 -1
-22 -10z"/>
<path d="M992 1310 c-56 -16 -102 -40 -76 -40 27 0 184 44 184 51 0 13 -38 10
-108 -11z"/>
<path d="M1316 1114 c-4 -15 -4 -29 -1 -32 8 -8 25 19 25 41 0 26 -17 20 -24
-9z"/>
<path d="M442 857 c-18 -42 -14 -68 4 -34 8 16 13 36 11 45 -3 13 -7 10 -15
-11z"/>
<path d="M2740 2470 c-25 -5 -92 -9 -150 -10 -116 -3 -146 -10 -169 -43 -18
-25 -22 -36 -85 -282 -53 -204 -81 -286 -196 -570 -45 -110 -82 -204 -83 -210
-2 -5 -5 -14 -9 -20 -11 -19 -158 -375 -197 -478 -53 -143 -54 -150 -30 -181
l21 -26 -22 -35 c-12 -19 -29 -35 -38 -35 -8 0 -47 -22 -86 -48 -39 -27 -97
-59 -129 -72 -67 -27 -92 -56 -83 -100 7 -36 61 -121 110 -173 20 -21 47 -60
60 -85 13 -26 38 -60 55 -76 28 -26 33 -28 57 -17 15 6 69 23 121 36 102 27
122 35 423 181 268 130 282 138 304 170 18 26 26 29 80 30 102 1 286 86 286
132 0 5 -15 26 -33 47 -28 32 -42 40 -83 44 -47 6 -49 7 -46 36 2 17 14 40 30
53 61 52 72 65 72 81 0 18 -29 51 -44 51 -5 0 -23 13 -42 29 -35 31 -51 32
-121 10 -18 -6 -42 -8 -53 -4 -31 10 -113 -22 -145 -55 -25 -26 -36 -30 -82
-30 -29 0 -53 2 -53 5 0 2 17 49 39 102 21 54 46 123 56 153 10 30 21 60 25
65 4 6 34 71 65 145 32 74 68 158 80 185 20 45 62 149 139 348 15 37 42 136
61 220 19 83 41 180 50 214 18 73 19 126 3 156 -11 22 -45 56 -57 58 -41 6
-63 5 -101 -1z m122 -66 c18 -31 18 -34 -12 -165 -17 -74 -37 -168 -46 -209
-9 -41 -25 -102 -36 -135 -20 -61 -127 -334 -152 -390 -8 -16 -40 -91 -71
-165 -32 -74 -68 -157 -80 -185 -13 -27 -35 -85 -49 -127 -14 -42 -48 -125
-75 -185 -27 -59 -47 -110 -45 -112 2 -3 21 5 42 17 47 26 115 42 134 31 9 -5
29 -1 51 9 39 18 47 32 20 32 -13 1 -10 5 10 16 46 25 107 44 107 34 0 -6 -4
-10 -10 -10 -5 0 -10 -4 -10 -9 0 -5 39 4 87 20 101 34 94 33 87 14 -6 -16
-103 -65 -129 -65 -8 0 -18 -7 -21 -15 -4 -8 -13 -15 -22 -15 -13 0 -14 -2 -3
-13 10 -10 14 -9 22 6 6 9 20 17 32 17 12 0 53 11 90 24 38 13 70 19 74 14 3
-6 14 -8 24 -5 11 3 19 1 19 -4 0 -14 -62 -49 -87 -49 -13 0 -23 -4 -23 -10 0
-5 5 -10 10 -10 27 0 4 -18 -52 -39 -109 -42 -294 -134 -277 -138 8 -2 37 5
63 17 26 11 52 20 58 20 5 0 23 9 39 21 16 11 33 17 39 14 19 -12 10 -24 -25
-31 -19 -3 -35 -10 -35 -15 0 -4 -22 -16 -49 -26 -27 -9 -47 -22 -45 -28 2 -5
-8 -18 -23 -28 -16 -10 -20 -16 -10 -13 9 3 17 2 17 -3 0 -11 -123 -75 -260
-136 -94 -41 -157 -81 -146 -92 6 -7 131 49 310 139 187 92 289 136 405 172
78 23 101 25 101 8 0 -4 -30 -18 -67 -31 -106 -38 -366 -151 -385 -169 -28
-24 -21 -35 10 -14 38 28 110 48 123 35 6 -6 -45 -37 -158 -93 -330 -162 -468
-223 -567 -250 -56 -15 -108 -30 -117 -34 -12 -5 -24 8 -49 56 -18 35 -53 84
-76 110 -89 96 -127 181 -86 195 68 24 166 76 201 108 39 36 68 43 41 10 -7
-9 -10 -19 -6 -23 10 -9 49 40 87 111 51 96 48 61 -6 -76 -12 -29 10 -19 83
37 39 30 73 52 76 49 8 -9 36 17 53 51 8 16 29 68 45 115 16 47 44 115 63 151
47 93 90 238 60 209 -2 -3 -29 -63 -58 -134 -52 -126 -81 -168 -75 -109 3 25
0 29 -19 27 -26 -3 -30 9 -9 26 10 9 15 9 18 1 2 -6 13 9 26 34 12 25 18 46
13 46 -6 0 -13 -9 -16 -20 -3 -11 -10 -20 -15 -20 -9 0 -2 25 19 75 5 11 21
54 36 95 15 41 38 102 51 135 106 279 224 600 224 613 0 10 -3 12 -9 6 -10
-10 -181 -436 -181 -451 0 -35 -169 -448 -262 -643 -67 -138 -66 -136 -74
-127 -3 3 20 66 51 139 61 142 90 226 81 236 -9 8 -5 14 -102 -200 -48 -109
-92 -198 -97 -198 -15 0 1 46 105 300 56 135 130 315 165 400 35 85 70 169 77
185 7 17 28 68 45 115 18 47 36 94 41 105 25 50 74 216 115 382 24 100 51 198
59 218 15 35 18 37 49 31 18 -3 36 -4 39 0 4 3 59 7 123 9 64 1 119 5 123 9 3
4 20 6 36 4 21 -2 35 -12 48 -34z m-804 -1536 c-12 -36 -28 -61 -35 -54 -10 9
19 86 32 86 11 0 12 -6 3 -32z m-38 -97 c0 -17 -59 -128 -74 -141 -25 -20 -19
3 20 80 31 62 54 88 54 61z m39 -53 c-26 -65 -27 -68 -44 -68 -10 0 -7 15 12
60 34 77 62 84 32 8z m701 -68 c0 -13 -29 -32 -40 -25 -14 9 -13 32 3 38 15 5
37 -2 37 -13z m-60 -65 c-6 -8 -35 -23 -63 -33 -87 -33 -100 -35 -95 -22 4 13
131 68 157 69 11 1 11 -2 1 -14z m249 -30 c-18 -18 -209 -91 -264 -100 -69
-12 -22 19 90 59 55 20 109 41 120 46 11 5 31 9 45 9 21 1 23 -1 9 -14z"/>
<path d="M2467 1943 c-9 -17 -18 -83 -10 -83 12 0 33 74 23 83 -4 5 -10 5 -13
0z"/>
<path d="M2324 1828 c-16 -40 -30 -76 -32 -80 -2 -5 0 -8 5 -8 7 0 73 139 73
155 0 3 -4 5 -8 5 -5 0 -22 -33 -38 -72z"/>
<path d="M2400 1548 c0 -6 -6 -19 -14 -27 -15 -17 -70 -146 -81 -193 -4 -16
-3 -28 1 -28 9 0 78 155 89 203 4 15 11 30 16 33 12 7 11 24 -1 24 -5 0 -10
-5 -10 -12z"/>
<path d="M2203 1533 c-3 -10 -30 -81 -60 -158 -65 -167 -68 -175 -57 -175 9 0
118 271 130 323 7 30 -3 38 -13 10z"/>
<path d="M2292 1455 c-14 -30 -15 -45 -4 -45 4 0 12 16 18 35 13 40 3 47 -14
10z"/>
<path d="M2262 1380 c-6 -14 -33 -76 -61 -139 -28 -63 -49 -116 -47 -118 10
-10 129 254 123 271 -3 6 -9 0 -15 -14z"/>
<path d="M2317 1063 c-3 -4 -8 -26 -12 -47 -6 -27 -4 -37 3 -32 12 7 28 74 19
82 -3 3 -7 2 -10 -3z"/>
<path d="M2230 914 c-16 -48 -5 -55 14 -9 19 44 19 45 7 45 -5 0 -15 -16 -21
-36z"/>
<path d="M2256 754 c-3 -9 -6 -23 -6 -32 0 -21 15 -5 25 26 7 25 -9 31 -19 6z"/>
<path d="M2348 673 c-18 -4 -23 -15 -13 -25 6 -6 70 14 81 25 8 8 -40 8 -68 0z"/>
<path d="M2395 570 c-19 -21 -13 -42 7 -22 7 7 20 12 31 12 10 0 17 5 15 13
-7 20 -33 19 -53 -3z"/>
<path d="M2198 469 c-21 -11 -38 -24 -38 -29 0 -15 16 -12 30 5 7 8 18 15 24
15 7 0 21 7 32 15 29 22 -3 18 -48 -6z"/>
<path d="M2221 411 c-78 -39 -74 -53 4 -17 35 17 65 34 65 39 0 12 -12 8 -69
-22z"/>
<path d="M2295 329 c-45 -22 -65 -39 -47 -39 6 0 26 9 44 20 18 11 41 20 50
20 9 0 20 5 23 10 10 16 -27 11 -70 -11z"/>
</g>
</svg>
